<svg width="64" height="64" fill="none" xmlns="http://www.w3.org/2000/svg"><path d="M50.087 64H13.913C6.261 64 0 57.74 0 50.087V13.913C0 6.261 6.26 0 13.913 0h36.174C57.739 0 64 6.26 64 13.913v36.174C64 57.739 57.74 64 50.087 64z" fill="#1976D2"/><path d="M55.527 20.115a2.41 2.41 0 00.123-.81c-.03-.706-.52-1.218-1.676-1.218h-5.16c-1.303 0-1.904.78-2.255 1.56 0 0-3.216 6.543-6.924 10.857-1.202 1.249-1.813 1.218-2.463 1.218-.35 0-1.23-.417-1.23-1.56v-10.1c0-1.352-.341-1.975-1.443-1.975h-9.163c-.802 0-1.22.623-1.22 1.248 0 1.3 1.77 1.611 1.97 5.252v7.057c0 1.714-.3 2.026-.951 2.026-1.755 0-5.208-5.844-7.52-13.503-.5-1.507-1-2.08-2.304-2.08h-5.209c-1.504 0-1.754.729-1.754 1.508 0 1.404 1.182 8.997 7.637 17.727 4.681 6.33 10.849 9.982 16.308 9.982 3.308 0 3.647-.831 3.647-2.13v-5.79c.002-1.56.362-1.819 1.415-1.819.75 0 2.282.487 5.239 3.896 3.41 3.93 4.028 5.843 5.984 5.843h5.16c1.198 0 1.886-.496 1.913-1.46a2.958 2.958 0 00-.11-.826c-.382-1.122-2.136-3.865-4.324-6.479-1.212-1.447-2.409-2.88-2.959-3.66-.368-.508-.508-.867-.49-1.21.017-.36.206-.703.49-1.182-.05 0 6.619-9.254 7.27-12.372z" fill="#fff"/></svg>