<svg width="64" height="64" fill="none" xmlns="http://www.w3.org/2000/svg"><path d="M64 55.111A8.888 8.888 0 0155.111 64H8.89A8.889 8.889 0 010 55.111V8.89C0 3.979 3.98 0 8.889 0H55.11A8.888 8.888 0 0164 8.889V55.11z" fill="#F44336"/><path d="M54.22 34.663c-.49-1.747-1.936-3.125-3.772-3.593C47.12 30.222 32 30.222 32 30.222s-15.122 0-18.448.85c-1.835.468-3.282 1.844-3.773 3.593-.89 3.168-.89 9.78-.89 9.78s0 6.611.89 9.78c.491 1.748 1.936 3.126 3.773 3.594 3.326.848 18.448.848 18.448.848s15.12 0 18.448-.85c1.834-.468 3.282-1.844 3.772-3.593.89-3.168.89-9.78.89-9.78s0-6.611-.89-9.78z" fill="#fff"/><path d="M18.37 55.111h-2.962V36.72h-2.963v-2.942h8.889v2.942H18.37v18.391zm11.852 0h-2.666l-.297-2.012c-1.17 1.264-2.562 2.012-3.645 2.012-.947 0-1.614-.41-1.94-1.16-.193-.47-.34-1.174-.34-2.232V38.222h2.963v13.79c.075.427.386.587.77.587.592 0 1.541-.645 2.192-1.499V38.222h2.963v16.89zm21.334-7.71v-4.802c0-1.381-.341-2.379-.948-3.026-.814-.882-1.985-1.35-3.452-1.35-1.497 0-2.653.468-3.497 1.35-.636.646-.992 1.703-.992 3.085v8.165c0 1.365.4 2.334 1.022 2.967.845.88 2 1.321 3.541 1.321 1.526 0 2.726-.455 3.526-1.395a3.05 3.05 0 00.697-1.396c.014-.235.103-.866.103-1.614h-2.964v1.175c0 .675-.666 1.234-1.48 1.234-.815 0-1.482-.559-1.482-1.234V47.4h5.926zm-5.925-5.815c0-.69.666-1.234 1.48-1.234.815 0 1.481.544 1.481 1.234v3.774H45.63v-3.774h.002zm-5.128-1.6c-.37-1.149-1.274-1.78-2.4-1.796-1.436-.014-2.03.736-3.141 2.03v-6.442H32V55.11h2.667l.297-1.838c.933 1.146 2.147 1.838 3.14 1.838 1.125 0 2.088-.588 2.458-1.737.178-.619.311-1.19.325-2.487v-7.723c.002-1.456-.19-2.56-.384-3.178zm-2.577 10.52c0 1.545-.356 2.075-1.156 2.075-.459 0-1.333-.309-1.808-.78V41.692c.475-.47 1.348-.926 1.808-.926.8 0 1.156.486 1.156 2.03v7.71z" fill="#F44336"/><path d="M16 5.333l3.262.002 2.11 10.155h.205l2.005-10.153 3.3-.002-3.77 14.03v7.302H19.87l-.005-6.907L16 5.333zm10.914 9.035c0-1.195.39-2.15 1.168-2.855.777-.71 1.82-1.067 3.136-1.069 1.2 0 2.178.372 2.942 1.12.763.743 1.147 1.707 1.147 2.884l.005 7.973c0 1.32-.372 2.358-1.12 3.115-.748.754-1.776 1.13-3.093 1.13-1.27 0-2.278-.392-3.044-1.166-.76-.773-1.138-1.818-1.14-3.128l-.005-8.006.004.002zm2.98 8.292c0 .42.1.752.316.983.204.227.496.343.88.343.393 0 .7-.118.931-.358.23-.229.349-.558.349-.972l-.006-8.41c0-.335-.122-.609-.357-.817-.233-.206-.542-.31-.923-.31-.353 0-.641.106-.864.312-.22.208-.33.482-.33.816l.003 8.413zm16.328-11.993v16H43.69l-.404-1.956c-.542.637-1.105 1.12-1.694 1.449-.583.33-1.152.507-1.703.507-.683 0-1.193-.235-1.54-.7-.346-.461-.517-1.156-.517-2.088l-.007-13.212h2.939L40.77 22.8c0 .363.064.631.188.798.118.16.326.25.596.25.22 0 .494-.111.818-.332.334-.216.636-.5.91-.837l-.004-12.012h2.944z" fill="#fff"/></svg>