<svg width="32" height="32" fill="none" xmlns="http://www.w3.org/2000/svg"><path d="M5.937 0A5.96 5.96 0 000 5.937v20.126A5.96 5.96 0 005.937 32h20.126A5.96 5.96 0 0032 26.062V5.938A5.96 5.96 0 0026.062 0H5.938zm0 2.91h20.126a3.01 3.01 0 013.028 3.027v20.126a3.01 3.01 0 01-3.029 3.028H5.938a3.01 3.01 0 01-3.028-3.029V5.938A3.01 3.01 0 015.937 2.91zm9.654 7.606c-1.069-.01-1.978 0-2.489.25-.341.166-.602.54-.443.558.2.029.647.125.887.45.306.414.296 1.352.296 1.352s.17 2.579-.417 2.903c-.402.221-.954-.228-2.147-2.28-.607-1.055-1.067-2.22-1.067-2.22s-.087-.217-.244-.33a1.26 1.26 0 00-.462-.188l-2.846.017s-.426.018-.579.2c-.143.17-.012.504-.012.504s2.227 5.21 4.75 7.836c2.312 2.41 4.938 2.25 4.938 2.25h1.192s.358-.04.54-.233c.172-.181.166-.523.166-.523s-.023-1.596.715-1.834c.733-.229 1.665 1.544 2.66 2.226.756.517 1.329.404 1.329.404l2.66-.04s1.386-.086.727-1.182c-.05-.085-.38-.806-1.97-2.284-1.672-1.545-1.45-1.294.561-3.97 1.222-1.631 1.71-2.626 1.556-3.058-.145-.403-1.044-.296-1.044-.296l-2.995.018s-.221-.03-.385.068a.838.838 0 00-.262.323s-.477 1.261-1.108 2.336c-1.33 2.26-1.87 2.386-2.085 2.244-.506-.33-.381-1.319-.381-2.017 0-2.2.334-3.108-.647-3.345-.325-.08-.563-.131-1.392-.139h-.002z" fill="#EFF3F5"/></svg>