<svg width="32" height="32" fill="none" xmlns="http://www.w3.org/2000/svg"><path fill-rule="evenodd" clip-rule="evenodd" d="M9.404.096C11.11.017 11.654 0 16 0s4.89.019 6.595.096 2.868.35 3.887.743a7.872 7.872 0 012.833 1.848 7.816 7.816 0 011.844 2.832c.396 1.018.667 2.181.745 3.883.079 1.71.096 2.253.096 6.598 0 4.346-.019 4.89-.096 6.596-.077 1.702-.349 2.866-.745 3.884a7.849 7.849 0 01-1.844 2.835 7.845 7.845 0 01-2.834 1.844c-1.018.396-2.181.667-3.883.745C20.89 31.983 20.346 32 16 32s-4.89-.019-6.596-.096c-1.702-.077-2.866-.35-3.884-.745a7.85 7.85 0 01-2.835-1.844A7.843 7.843 0 01.84 26.48C.445 25.463.175 24.3.096 22.599.018 20.888 0 20.345 0 16c0-4.346.019-4.89.096-6.595S.446 6.537.84 5.52a7.849 7.849 0 011.848-2.834A7.843 7.843 0 015.519.84C6.537.445 7.7.175 9.402.096h.002zm13.061 2.88c-1.687-.077-2.193-.093-6.465-.093s-4.778.016-6.465.093c-1.561.071-2.408.332-2.972.551a4.972 4.972 0 00-1.84 1.196 4.963 4.963 0 00-1.196 1.84c-.22.564-.48 1.41-.55 2.972-.078 1.687-.094 2.193-.094 6.465s.016 4.778.093 6.465c.071 1.561.332 2.408.551 2.972a4.967 4.967 0 001.196 1.84c.516.531 1.146.94 1.84 1.196.564.22 1.41.48 2.972.551 1.687.077 2.192.093 6.465.093s4.778-.016 6.465-.093c1.561-.071 2.408-.332 2.972-.551a4.968 4.968 0 001.84-1.196 4.962 4.962 0 001.196-1.84c.22-.564.48-1.41.551-2.972.077-1.687.093-2.193.093-6.465s-.016-4.778-.093-6.465c-.071-1.561-.332-2.408-.551-2.972a4.968 4.968 0 00-1.196-1.84 4.965 4.965 0 00-1.84-1.196c-.564-.22-1.41-.48-2.972-.551zm-8.509 17.956a5.337 5.337 0 005.819-8.706 5.337 5.337 0 10-5.819 8.706zm-3.771-10.747a8.225 8.225 0 1111.63 11.631 8.225 8.225 0 01-11.63-11.631zM26.048 9a1.945 1.945 0 10-2.67-2.83A1.945 1.945 0 0026.048 9z" fill="#EFF3F5"/></svg>