<svg width="24" height="17" fill="none" xmlns="http://www.w3.org/2000/svg"><path d="M23.494 2.52a2.86 2.86 0 00-.776-1.289 3.03 3.03 0 00-1.341-.745C19.508 0 12 0 12 0S4.492 0 2.623.486a3.03 3.03 0 00-1.341.745 2.86 2.86 0 00-.776 1.29 28.638 28.638 0 00-.505 5.552 28.59 28.59 0 00.505 5.552c.137.488.404.932.776 1.29a3.03 3.03 0 001.341.745c1.869.486 9.377.486 9.377.486s7.508 0 9.377-.486a3.03 3.03 0 001.341-.745 2.86 2.86 0 00.776-1.29c.349-1.831.518-3.69.505-5.552a28.637 28.637 0 00-.505-5.552zM9.6 11.534v-6.92l6.231 3.46-6.23 3.46z" fill="#EFF3F5"/></svg>